<svg width="14" height="16" viewBox="0 0 14 16" fill="none" xmlns="http://www.w3.org/2000/svg">
<path d="M0.333008 9.66667C0.333008 8.20833 0.68023 6.90972 1.37467 5.77083C2.06912 4.63194 2.83301 3.67361 3.66634 2.89583C4.49967 2.11806 5.26356 1.52417 5.95801 1.11417L6.99968 0.5V3.25C6.99968 3.76389 7.17329 4.17 7.52051 4.46833C7.86773 4.76667 8.25662 4.91611 8.68717 4.91667C8.92329 4.91667 9.14912 4.86806 9.36468 4.77083C9.58023 4.67361 9.77801 4.51389 9.95801 4.29167L10.333 3.83333C11.333 4.41667 12.1386 5.22555 12.7497 6.26C13.3608 7.29444 13.6663 8.43 13.6663 9.66667C13.6663 10.8889 13.3677 12.0036 12.7705 13.0108C12.1733 14.0181 11.3886 14.8128 10.4163 15.395C10.6525 15.0617 10.8366 14.6969 10.9688 14.3008C11.1011 13.9047 11.1669 13.485 11.1663 13.0417C11.1663 12.4861 11.0622 11.9617 10.8538 11.4683C10.6455 10.975 10.3469 10.5342 9.95801 10.1458L6.99968 7.25L4.06218 10.1458C3.6594 10.5486 3.35384 10.9931 3.14551 11.4792C2.93717 11.9653 2.83301 12.4861 2.83301 13.0417C2.83301 13.4861 2.89912 13.9064 3.03134 14.3025C3.16356 14.6986 3.34745 15.0631 3.58301 15.3958C2.61079 14.8125 1.82606 14.0172 1.22884 13.01C0.631619 12.0028 0.333008 10.8883 0.333008 9.66667ZM6.99968 9.58333L8.77051 11.3125C9.00662 11.5486 9.18717 11.8125 9.31217 12.1042C9.43717 12.3958 9.49968 12.7083 9.49968 13.0417C9.49968 13.7222 9.25662 14.3019 8.77051 14.7808C8.2844 15.2597 7.69412 15.4994 6.99968 15.5C6.30523 15.5 5.71495 15.2603 5.22884 14.7808C4.74273 14.3014 4.49967 13.7217 4.49967 13.0417C4.49967 12.7222 4.56218 12.4131 4.68718 12.1142C4.81218 11.8153 4.99273 11.5481 5.22884 11.3125L6.99968 9.58333Z" fill="#FF8743"/>
</svg>
