<svg width="333" height="200" viewBox="0 0 333 200" fill="none" xmlns="http://www.w3.org/2000/svg">
<rect width="333" height="200" fill="#F8F8FA"/>
<g opacity="0.5" clip-path="url(#clip0_10494_1105)">
<path fill-rule="evenodd" clip-rule="evenodd" d="M195.23 81.1487C195.752 81.3571 196.2 81.7171 196.515 82.1823C196.831 82.6476 197 83.1966 197 83.7587V116.241C197 116.803 196.831 117.352 196.515 117.818C196.2 118.283 195.752 118.643 195.23 118.851L168.043 129.726C167.372 129.994 166.624 129.994 165.954 129.726L138.766 118.851C138.245 118.642 137.798 118.282 137.483 117.817C137.168 117.352 137 116.803 137 116.241V83.7587C137 83.1971 137.168 82.6483 137.483 82.1831C137.798 81.718 138.245 81.3577 138.766 81.1487L164.911 70.69L164.949 70.6787L165.954 70.2737C166.625 70.0046 167.375 70.0046 168.046 70.2737L169.055 70.6787L169.092 70.69L195.23 81.1487ZM176.015 77.5L152.938 86.7287L143.923 83.125L140.75 84.3962V85.8962L165.125 95.6462V125.354L167 126.104L168.875 125.354V95.65L193.25 85.9V84.4L190.077 83.1287L167 92.3537L157.985 88.75L181.062 79.5212L176.015 77.5Z" fill="#A6A9C7"/>
</g>
<rect x="12.5" y="12.5" width="111" height="31" rx="3.5" fill="white"/>
<rect x="12.5" y="12.5" width="111" height="31" rx="3.5" stroke="#F2F2F2"/>
<path d="M24.2178 28.016L21.2358 23.2H22.6358L24.6238 26.518L24.9738 27.316L25.3098 26.518L27.4098 23.2H28.6978L25.6178 27.918L28.8378 33H27.4798L25.2678 29.486L24.8898 28.646L24.5258 29.486L22.2578 33H20.9558L24.2178 28.016ZM34.6921 28.856L34.7341 27.988H34.6921L34.1181 28.884L30.9681 33H30.3241V26H31.4441V30.27L31.4021 31.096H31.4581L32.0041 30.228L35.1541 26H35.8121V33H34.6921V28.856ZM42.4327 26.98H40.2347V33H39.1147V26.98H36.9167V26H42.4327V26.98ZM51.0537 26.98H47.9597V33H46.8397V26H52.1737V33H51.0537V26.98ZM54.3319 26H55.1019L55.3119 26.84H55.3679C55.5826 26.5133 55.8579 26.266 56.1939 26.098C56.5392 25.9207 56.9312 25.832 57.3699 25.832C58.3032 25.832 58.9986 26.1073 59.4559 26.658C59.9132 27.2087 60.1419 28.1093 60.1419 29.36C60.1419 29.948 60.0626 30.48 59.9039 30.956C59.7546 31.4227 59.5399 31.8193 59.2599 32.146C58.9799 32.4727 58.6392 32.7247 58.2379 32.902C57.8459 33.0793 57.4072 33.168 56.9219 33.168C56.5766 33.168 56.3012 33.1447 56.0959 33.098C55.8999 33.0607 55.6852 32.9907 55.4519 32.888V35.8H54.3319V26ZM57.1599 26.812C56.6839 26.812 56.3059 26.938 56.0259 27.19C55.7552 27.4327 55.5639 27.806 55.4519 28.31V31.782C55.6199 31.9127 55.8112 32.0153 56.0259 32.09C56.2406 32.1553 56.5252 32.188 56.8799 32.188C57.5239 32.188 58.0326 31.95 58.4059 31.474C58.7886 30.9887 58.9799 30.2793 58.9799 29.346C58.9799 28.9633 58.9472 28.618 58.8819 28.31C58.8166 27.9927 58.7092 27.7267 58.5599 27.512C58.4199 27.288 58.2332 27.1153 57.9999 26.994C57.7759 26.8727 57.4959 26.812 57.1599 26.812ZM61.5141 29.5C61.5141 28.3147 61.7755 27.4093 62.2981 26.784C62.8301 26.1493 63.5908 25.832 64.5801 25.832C65.1028 25.832 65.5555 25.9207 65.9381 26.098C66.3301 26.266 66.6521 26.5133 66.9041 26.84C67.1561 27.1573 67.3428 27.5447 67.4641 28.002C67.5855 28.45 67.6461 28.9493 67.6461 29.5C67.6461 30.6853 67.3801 31.5953 66.8481 32.23C66.3255 32.8553 65.5695 33.168 64.5801 33.168C64.0575 33.168 63.6001 33.084 63.2081 32.916C62.8255 32.7387 62.5081 32.4913 62.2561 32.174C62.0041 31.8473 61.8175 31.46 61.6961 31.012C61.5748 30.5547 61.5141 30.0507 61.5141 29.5ZM62.6761 29.5C62.6761 29.8547 62.7088 30.1953 62.7741 30.522C62.8488 30.8487 62.9608 31.1333 63.1101 31.376C63.2595 31.6187 63.4555 31.8147 63.6981 31.964C63.9408 32.1133 64.2348 32.188 64.5801 32.188C65.8495 32.1973 66.4841 31.3013 66.4841 29.5C66.4841 29.136 66.4468 28.7907 66.3721 28.464C66.3068 28.1373 66.1995 27.8527 66.0501 27.61C65.9008 27.3673 65.7048 27.176 65.4621 27.036C65.2195 26.8867 64.9255 26.812 64.5801 26.812C63.3108 26.8027 62.6761 27.6987 62.6761 29.5ZM75.518 34.778H74.762L74.552 33H69.288L69.078 34.778H68.322V32.02H69.148C69.2226 31.9173 69.3206 31.7353 69.442 31.474C69.5633 31.2033 69.68 30.83 69.792 30.354C69.9133 29.8687 70.016 29.2713 70.1 28.562C70.1933 27.8433 70.2493 26.9893 70.268 26H74.496V32.02H75.518V34.778ZM73.376 32.02V26.98H71.276C71.2573 27.372 71.2246 27.8013 71.178 28.268C71.1313 28.7253 71.066 29.1873 70.982 29.654C70.9073 30.1113 70.8093 30.5453 70.688 30.956C70.5666 31.3667 70.4266 31.7213 70.268 32.02H73.376ZM76.7922 26.518C77.1468 26.3033 77.5575 26.1447 78.0242 26.042C78.5002 25.9393 78.9948 25.888 79.5082 25.888C79.9935 25.888 80.3808 25.9533 80.6702 26.084C80.9688 26.2147 81.1928 26.3873 81.3422 26.602C81.5008 26.8073 81.6035 27.036 81.6502 27.288C81.7062 27.54 81.7342 27.792 81.7342 28.044C81.7342 28.604 81.7202 29.15 81.6922 29.682C81.6642 30.214 81.6502 30.718 81.6502 31.194C81.6502 31.5393 81.6642 31.866 81.6922 32.174C81.7202 32.482 81.7715 32.7667 81.8462 33.028H81.0202L80.7262 32.048H80.6562C80.5722 32.1787 80.4648 32.3093 80.3342 32.44C80.2128 32.5613 80.0635 32.6733 79.8862 32.776C79.7088 32.8693 79.5035 32.9487 79.2702 33.014C79.0368 33.0793 78.7708 33.112 78.4722 33.112C78.1735 33.112 77.8935 33.0653 77.6322 32.972C77.3802 32.8787 77.1608 32.748 76.9742 32.58C76.7875 32.4027 76.6382 32.1927 76.5262 31.95C76.4235 31.7073 76.3722 31.432 76.3722 31.124C76.3722 30.7133 76.4562 30.3727 76.6242 30.102C76.7922 29.822 77.0255 29.6027 77.3242 29.444C77.6322 29.276 77.9962 29.1593 78.4162 29.094C78.8455 29.0193 79.3168 28.982 79.8302 28.982C79.9608 28.982 80.0868 28.982 80.2082 28.982C80.3388 28.982 80.4695 28.9913 80.6002 29.01C80.6282 28.73 80.6422 28.478 80.6422 28.254C80.6422 27.7407 80.5395 27.3813 80.3342 27.176C80.1288 26.9707 79.7555 26.868 79.2142 26.868C79.0555 26.868 78.8828 26.882 78.6962 26.91C78.5188 26.9287 78.3322 26.9613 78.1362 27.008C77.9495 27.0453 77.7675 27.0967 77.5902 27.162C77.4222 27.218 77.2728 27.2833 77.1422 27.358L76.7922 26.518ZM78.7802 32.132C79.0415 32.132 79.2748 32.0993 79.4802 32.034C79.6855 31.9593 79.8628 31.8707 80.0122 31.768C80.1615 31.656 80.2828 31.5347 80.3762 31.404C80.4788 31.2733 80.5535 31.1473 80.6002 31.026V29.864C80.4695 29.8547 80.3342 29.85 80.1942 29.85C80.0635 29.8407 79.9328 29.836 79.8022 29.836C79.5128 29.836 79.2282 29.8547 78.9482 29.892C78.6775 29.92 78.4348 29.9807 78.2202 30.074C78.0148 30.158 77.8468 30.2793 77.7162 30.438C77.5948 30.5873 77.5342 30.7787 77.5342 31.012C77.5342 31.3387 77.6508 31.6093 77.8842 31.824C78.1175 32.0293 78.4162 32.132 78.7802 32.132ZM86.1315 29.906L84.0735 33H82.7855L84.9975 29.794L85.4735 29.374L84.7595 28.842L82.9395 26H84.1295L86.0615 29.024H86.7895V26H87.8815V29.164L88.5395 28.968L90.4855 26H91.6615L89.7575 28.842L89.2115 29.29L89.9255 29.85L91.9975 33H90.6675L88.6095 29.85H87.8815V33H86.7895V29.71L86.1315 29.906Z" fill="#333333"/>
<path d="M99.3334 29.6667C99.3334 28.2083 99.6806 26.9097 100.375 25.7708C101.069 24.6319 101.833 23.6736 102.667 22.8958C103.5 22.1181 104.264 21.5242 104.958 21.1142L106 20.5V23.25C106 23.7639 106.174 24.17 106.521 24.4683C106.868 24.7667 107.257 24.9161 107.688 24.9167C107.924 24.9167 108.149 24.8681 108.365 24.7708C108.581 24.6736 108.778 24.5139 108.958 24.2917L109.333 23.8333C110.333 24.4167 111.139 25.2256 111.75 26.26C112.361 27.2944 112.667 28.43 112.667 29.6667C112.667 30.8889 112.368 32.0036 111.771 33.0108C111.174 34.0181 110.389 34.8128 109.417 35.395C109.653 35.0617 109.837 34.6969 109.969 34.3008C110.101 33.9047 110.167 33.485 110.167 33.0417C110.167 32.4861 110.063 31.9617 109.854 31.4683C109.646 30.975 109.347 30.5342 108.958 30.1458L106 27.25L103.063 30.1458C102.66 30.5486 102.354 30.9931 102.146 31.4792C101.938 31.9653 101.833 32.4861 101.833 33.0417C101.833 33.4861 101.899 33.9064 102.032 34.3025C102.164 34.6986 102.348 35.0631 102.583 35.3958C101.611 34.8125 100.826 34.0172 100.229 33.01C99.632 32.0028 99.3334 30.8883 99.3334 29.6667ZM106 29.5833L107.771 31.3125C108.007 31.5486 108.188 31.8125 108.313 32.1042C108.438 32.3958 108.5 32.7083 108.5 33.0417C108.5 33.7222 108.257 34.3019 107.771 34.7808C107.285 35.2597 106.694 35.4994 106 35.5C105.306 35.5 104.715 35.2603 104.229 34.7808C103.743 34.3014 103.5 33.7217 103.5 33.0417C103.5 32.7222 103.563 32.4131 103.688 32.1142C103.813 31.8153 103.993 31.5481 104.229 31.3125L106 29.5833Z" fill="#FF8743"/>
<rect x="12" y="162" width="48" height="26" rx="4" fill="#7397F5"/>
<path d="M29.0055 172.594C29.0055 173.07 28.9168 173.551 28.7395 174.036C28.5715 174.521 28.3521 174.997 28.0815 175.464C27.8201 175.931 27.5261 176.383 27.1995 176.822C26.8821 177.251 26.5695 177.648 26.2615 178.012L25.5195 178.586V178.656L26.5275 178.46H29.2155V180H23.3215V179.062C23.5455 178.829 23.7975 178.558 24.0775 178.25C24.3575 177.933 24.6375 177.601 24.9175 177.256C25.2068 176.901 25.4868 176.537 25.7575 176.164C26.0281 175.791 26.2708 175.417 26.4855 175.044C26.7001 174.661 26.8681 174.293 26.9895 173.938C27.1201 173.583 27.1855 173.247 27.1855 172.93C27.1855 172.547 27.0735 172.235 26.8495 171.992C26.6348 171.74 26.2895 171.614 25.8135 171.614C25.5148 171.614 25.2068 171.679 24.8895 171.81C24.5815 171.931 24.3201 172.09 24.1055 172.286L23.3775 170.998C23.7415 170.699 24.1521 170.461 24.6095 170.284C25.0761 170.097 25.6221 170.004 26.2475 170.004C26.6488 170.004 27.0175 170.06 27.3535 170.172C27.6895 170.284 27.9788 170.447 28.2215 170.662C28.4641 170.877 28.6555 171.147 28.7955 171.474C28.9355 171.791 29.0055 172.165 29.0055 172.594ZM33.3788 178.586C33.9948 178.586 34.4662 178.437 34.7928 178.138C35.1195 177.839 35.2828 177.429 35.2828 176.906C35.2828 176.346 35.0915 175.935 34.7088 175.674C34.3262 175.413 33.7802 175.282 33.0708 175.282L31.9648 175.324V170.2H36.7808V171.908H33.5328V173.798L34.1068 173.742C34.5642 173.761 34.9748 173.845 35.3388 173.994C35.7122 174.143 36.0295 174.353 36.2908 174.624C36.5522 174.885 36.7528 175.207 36.8928 175.59C37.0328 175.963 37.1028 176.383 37.1028 176.85C37.1028 177.401 37.0095 177.886 36.8228 178.306C36.6362 178.726 36.3748 179.076 36.0388 179.356C35.7122 179.636 35.3248 179.846 34.8768 179.986C34.4288 180.126 33.9388 180.196 33.4068 180.196C32.9868 180.196 32.5855 180.159 32.2028 180.084C31.8295 180.019 31.5122 179.925 31.2508 179.804L31.7408 178.292C31.9555 178.385 32.1888 178.46 32.4408 178.516C32.7022 178.563 33.0148 178.586 33.3788 178.586ZM38.9562 172.412C38.9562 171.992 39.0169 171.633 39.1382 171.334C39.2595 171.035 39.4275 170.788 39.6422 170.592C39.8569 170.396 40.1135 170.256 40.4122 170.172C40.7202 170.079 41.0515 170.032 41.4062 170.032C41.7609 170.032 42.0875 170.074 42.3862 170.158C42.6849 170.242 42.9415 170.377 43.1562 170.564C43.3802 170.751 43.5529 170.998 43.6742 171.306C43.7955 171.605 43.8609 171.973 43.8702 172.412C43.8609 172.851 43.7955 173.224 43.6742 173.532C43.5529 173.831 43.3802 174.073 43.1562 174.26C42.9415 174.447 42.6849 174.582 42.3862 174.666C42.0875 174.75 41.7609 174.792 41.4062 174.792C41.0515 174.792 40.7202 174.75 40.4122 174.666C40.1135 174.582 39.8569 174.447 39.6422 174.26C39.4275 174.073 39.2595 173.831 39.1382 173.532C39.0169 173.224 38.9562 172.851 38.9562 172.412ZM40.5802 172.412C40.5802 173.215 40.8555 173.616 41.4062 173.616C41.6955 173.616 41.9009 173.532 42.0222 173.364C42.1529 173.187 42.2229 172.869 42.2322 172.412C42.2229 171.964 42.1529 171.651 42.0222 171.474C41.9009 171.297 41.6955 171.208 41.4062 171.208C41.1169 171.208 40.9069 171.297 40.7762 171.474C40.6455 171.651 40.5802 171.964 40.5802 172.412ZM44.6402 177.606C44.6402 177.186 44.7009 176.827 44.8222 176.528C44.9435 176.229 45.1115 175.982 45.3262 175.786C45.5409 175.59 45.7975 175.45 46.0962 175.366C46.4042 175.273 46.7355 175.226 47.0902 175.226C47.4449 175.226 47.7715 175.268 48.0702 175.352C48.3689 175.436 48.6255 175.571 48.8402 175.758C49.0642 175.945 49.2369 176.192 49.3582 176.5C49.4795 176.799 49.5449 177.167 49.5542 177.606C49.5449 178.045 49.4795 178.418 49.3582 178.726C49.2369 179.025 49.0642 179.267 48.8402 179.454C48.6255 179.641 48.3689 179.776 48.0702 179.86C47.7715 179.944 47.4449 179.986 47.0902 179.986C46.7355 179.986 46.4042 179.944 46.0962 179.86C45.7975 179.776 45.5409 179.641 45.3262 179.454C45.1115 179.267 44.9435 179.025 44.8222 178.726C44.7009 178.418 44.6402 178.045 44.6402 177.606ZM46.2642 177.606C46.2642 178.409 46.5395 178.81 47.0902 178.81C47.3795 178.81 47.5849 178.726 47.7062 178.558C47.8369 178.381 47.9069 178.063 47.9162 177.606C47.9069 177.158 47.8369 176.845 47.7062 176.668C47.5849 176.491 47.3795 176.402 47.0902 176.402C46.8009 176.402 46.5909 176.491 46.4602 176.668C46.3295 176.845 46.2642 177.158 46.2642 177.606ZM47.7202 170.004L48.7422 170.928L40.6782 180.196L39.6562 179.23L47.7202 170.004Z" fill="white"/>
<defs>
<clipPath id="clip0_10494_1105">
<rect width="60" height="60" fill="white" transform="translate(137 70)"/>
</clipPath>
</defs>
</svg>
